<svg xmlns="http://www.w3.org/2000/svg" xmlns:xlink="http://www.w3.org/1999/xlink" width="418" height="59.988" viewBox="0 0 418 59.988">
  <defs>
    <clipPath id="clip-path">
      <rect id="Rectangle_291" data-name="Rectangle 291" width="418" height="59.988" fill="none"/>
    </clipPath>
  </defs>
  <g id="Group_968" data-name="Group 968" transform="translate(0 0)">
    <path id="Path_1325" data-name="Path 1325" d="M232.773,61.116v.867h2.469v7.027h1.06V61.983h2.482v-.867Z" transform="translate(-34.857 -9.152)" fill="#fff"/>
    <path id="Path_1326" data-name="Path 1326" d="M248.713,61.116v3.3h-3.927v-3.3h-1.047v7.895h1.047v-3.7h3.927v3.7h1.059V61.116Z" transform="translate(-36.499 -9.152)" fill="#fff"/>
    <path id="Path_1327" data-name="Path 1327" d="M255.806,61.116v7.895h4.565v-.855h-3.517V65.309h3.156v-.843h-3.156V61.971h3.336v-.855Z" transform="translate(-38.306 -9.152)" fill="#fff"/>
    <g id="Group_967" data-name="Group 967" transform="translate(0 0)">
      <g id="Group_966" data-name="Group 966" clip-path="url(#clip-path)">
        <path id="Path_1328" data-name="Path 1328" d="M272.49,61.116V65.79c0,1.769.807,2.518,1.891,2.518,1.2,0,1.976-.772,1.976-2.518V61.116h1.06v4.6c0,2.425-1.314,3.421-3.072,3.421-1.662,0-2.916-.925-2.916-3.374v-4.65Z" transform="translate(-40.646 -9.152)" fill="#fff"/>
        <path id="Path_1329" data-name="Path 1329" d="M283.442,61.116h1.048v7.04h3.469v.854h-4.517Z" transform="translate(-42.445 -9.152)" fill="#fff"/>
        <path id="Path_1330" data-name="Path 1330" d="M293.093,61.983h-2.469v-.866h6.01v.866h-2.481v7.028h-1.06Z" transform="translate(-43.52 -9.152)" fill="#fff"/>
        <rect id="Rectangle_289" data-name="Rectangle 289" width="1.048" height="7.895" transform="translate(256.425 51.964)" fill="#fff"/>
        <path id="Path_1331" data-name="Path 1331" d="M314.61,65.544c-.06-1.1-.133-2.425-.121-3.409h-.036c-.277.925-.615,1.91-1.024,3L312,68.965H311.2L309.888,65.2c-.385-1.113-.711-2.132-.939-3.069h-.025c-.024.984-.084,2.308-.156,3.49l-.217,3.386h-1l.566-7.9h1.337l1.386,3.819c.337.972.614,1.838.819,2.658h.036c.2-.8.494-1.662.855-2.658L314,61.116h1.337l.506,7.9h-1.024Z" transform="translate(-46.055 -9.152)" fill="#fff"/>
        <path id="Path_1332" data-name="Path 1332" d="M323.09,66.528l-.843,2.484h-1.084l2.758-7.9h1.264l2.77,7.9h-1.12l-.867-2.484Zm2.662-.8-.795-2.273c-.181-.515-.3-.984-.422-1.44h-.024c-.121.468-.253.949-.41,1.429l-.795,2.284Z" transform="translate(-48.094 -9.152)" fill="#fff"/>
        <path id="Path_1333" data-name="Path 1333" d="M333.675,61.983h-2.469v-.866h6.01v.866h-2.481v7.028h-1.06Z" transform="translate(-49.597 -9.152)" fill="#fff"/>
        <path id="Path_1334" data-name="Path 1334" d="M346.373,65.309h-3.155v2.847h3.517v.855H342.17v-7.9h4.384v.855h-3.336v2.5h3.155Z" transform="translate(-51.239 -9.152)" fill="#fff"/>
        <path id="Path_1335" data-name="Path 1335" d="M357.591,67.746a3.787,3.787,0,0,0,1.879.516c1.072,0,1.7-.551,1.7-1.348,0-.738-.434-1.16-1.53-1.57-1.326-.457-2.144-1.125-2.144-2.238,0-1.229,1.048-2.143,2.626-2.143a3.771,3.771,0,0,1,1.794.387l-.288.832a3.31,3.31,0,0,0-1.542-.374c-1.109,0-1.53.644-1.53,1.183,0,.738.494,1.1,1.615,1.523,1.373.515,2.071,1.16,2.071,2.319,0,1.218-.927,2.272-2.842,2.272a4.3,4.3,0,0,1-2.072-.5Z" transform="translate(-53.509 -9.13)" fill="#fff"/>
        <path id="Path_1336" data-name="Path 1336" d="M374.476,64.958c0,2.717-1.7,4.159-3.77,4.159-2.143,0-3.649-1.617-3.649-4.006,0-2.507,1.6-4.147,3.77-4.147,2.217,0,3.649,1.651,3.649,3.994m-6.3.129c0,1.687.94,3.2,2.59,3.2s2.6-1.487,2.6-3.279c0-1.57-.844-3.209-2.591-3.209s-2.6,1.558-2.6,3.291" transform="translate(-54.966 -9.13)" fill="#fff"/>
        <path id="Path_1337" data-name="Path 1337" d="M385.806,68.731a5.346,5.346,0,0,1-2.144.374,3.742,3.742,0,0,1-4.012-3.994,3.985,3.985,0,0,1,4.24-4.146,4.453,4.453,0,0,1,1.927.351l-.253.832a3.912,3.912,0,0,0-1.638-.328,2.974,2.974,0,0,0-3.167,3.256,2.907,2.907,0,0,0,3.12,3.175,4.279,4.279,0,0,0,1.71-.328Z" transform="translate(-56.852 -9.13)" fill="#fff"/>
        <path id="Path_1338" data-name="Path 1338" d="M396.557,68.731a5.345,5.345,0,0,1-2.144.374,3.742,3.742,0,0,1-4.012-3.994,3.985,3.985,0,0,1,4.24-4.146,4.453,4.453,0,0,1,1.927.351l-.253.832a3.912,3.912,0,0,0-1.638-.328,2.974,2.974,0,0,0-3.167,3.256,2.907,2.907,0,0,0,3.12,3.175,4.279,4.279,0,0,0,1.71-.328Z" transform="translate(-58.462 -9.13)" fill="#fff"/>
        <path id="Path_1339" data-name="Path 1339" d="M406.22,65.309h-3.155v2.847h3.517v.855h-4.565v-7.9H406.4v.855h-3.336v2.5h3.155Z" transform="translate(-60.201 -9.152)" fill="#fff"/>
        <path id="Path_1340" data-name="Path 1340" d="M411.819,61.211a11.215,11.215,0,0,1,2.012-.164,3.388,3.388,0,0,1,2.349.644,1.939,1.939,0,0,1,.639,1.5,2.083,2.083,0,0,1-1.53,2.015v.036a1.974,1.974,0,0,1,1.193,1.593A12.32,12.32,0,0,0,417.107,69h-1.084a10.073,10.073,0,0,1-.542-1.887c-.241-1.088-.674-1.5-1.627-1.534h-.987V69h-1.048Zm1.048,3.6h1.072c1.12,0,1.831-.6,1.831-1.5,0-1.019-.759-1.464-1.867-1.477a4.418,4.418,0,0,0-1.036.094Z" transform="translate(-61.669 -9.142)" fill="#fff"/>
        <path id="Path_1341" data-name="Path 1341" d="M427.891,67.746a3.793,3.793,0,0,0,1.88.516c1.071,0,1.7-.551,1.7-1.348,0-.738-.434-1.16-1.53-1.57-1.326-.457-2.144-1.125-2.144-2.238,0-1.229,1.048-2.143,2.626-2.143a3.775,3.775,0,0,1,1.795.387l-.289.832a3.31,3.31,0,0,0-1.542-.374c-1.109,0-1.53.644-1.53,1.183,0,.738.493,1.1,1.614,1.523,1.373.515,2.071,1.16,2.071,2.319,0,1.218-.927,2.272-2.842,2.272a4.3,4.3,0,0,1-2.072-.5Z" transform="translate(-64.036 -9.13)" fill="#fff"/>
        <path id="Path_1342" data-name="Path 1342" d="M439.3,61.983h-2.47v-.866h6.011v.866h-2.482v7.028H439.3Z" transform="translate(-65.415 -9.152)" fill="#fff"/>
        <path id="Path_1343" data-name="Path 1343" d="M454.268,64.958c0,2.717-1.7,4.159-3.77,4.159-2.144,0-3.65-1.617-3.65-4.006,0-2.507,1.6-4.147,3.77-4.147,2.217,0,3.65,1.651,3.65,3.994m-6.3.129c0,1.687.94,3.2,2.59,3.2s2.6-1.487,2.6-3.279c0-1.57-.843-3.209-2.59-3.209s-2.6,1.558-2.6,3.291" transform="translate(-66.915 -9.13)" fill="#fff"/>
        <path id="Path_1344" data-name="Path 1344" d="M460.007,61.211a11.214,11.214,0,0,1,2.012-.164,3.388,3.388,0,0,1,2.349.644,1.939,1.939,0,0,1,.639,1.5,2.083,2.083,0,0,1-1.53,2.015v.036a1.974,1.974,0,0,1,1.193,1.593A12.32,12.32,0,0,0,465.295,69h-1.084a10.074,10.074,0,0,1-.542-1.887c-.241-1.088-.674-1.5-1.627-1.534h-.987V69h-1.048Zm1.048,3.6h1.072c1.12,0,1.831-.6,1.831-1.5,0-1.019-.759-1.464-1.867-1.477a4.418,4.418,0,0,0-1.036.094Z" transform="translate(-68.885 -9.142)" fill="#fff"/>
        <path id="Path_1345" data-name="Path 1345" d="M474.666,65.309h-3.155v2.847h3.517v.855h-4.565v-7.9h4.384v.855h-3.336v2.5h3.155Z" transform="translate(-70.451 -9.152)" fill="#fff"/>
        <path id="Path_1346" data-name="Path 1346" d="M126.158,5.455a5.759,5.759,0,0,1,2.353.491,6.068,6.068,0,0,1,3.206,3.206,5.761,5.761,0,0,1,.491,2.353v13.7a5.761,5.761,0,0,1-.491,2.353,6.075,6.075,0,0,1-3.206,3.206,5.746,5.746,0,0,1-2.353.491H114.625a1,1,0,0,0-.7.258.867.867,0,0,0-.284.673v8.481a.869.869,0,0,1-.983.983h-7.137a.868.868,0,0,1-.982-.983V6.437a.868.868,0,0,1,.982-.982Zm-2.741,8.222H113.332v9.154h10.085Z" transform="translate(-15.655 -0.817)" fill="#fff"/>
        <path id="Path_1347" data-name="Path 1347" d="M173.858,40.828a.546.546,0,0,1,.052.6.632.632,0,0,1-.568.233h-8.224a1.668,1.668,0,0,1-.827-.233,1.583,1.583,0,0,1-.621-.6L158.189,31a.373.373,0,0,0-.362-.207h-6.154a.229.229,0,0,0-.259.259v9.619a.868.868,0,0,1-.982.983h-7.137a.869.869,0,0,1-.983-.983V6.437a.868.868,0,0,1,.983-.982H166.67a5.759,5.759,0,0,1,2.353.491,6.068,6.068,0,0,1,3.206,3.206,5.748,5.748,0,0,1,.492,2.353v13.6a5.984,5.984,0,0,1-4.138,5.688l-.155.052q-.362.1-.155.31l.051.1ZM163.566,13.884H151.1v8.792h12.464Z" transform="translate(-21.311 -0.817)" fill="#fff"/>
        <path id="Path_1348" data-name="Path 1348" d="M209.247,5.455a5.763,5.763,0,0,1,2.353.491,6.068,6.068,0,0,1,3.206,3.206,5.761,5.761,0,0,1,.491,2.353V35.6a5.764,5.764,0,0,1-.491,2.353,6.592,6.592,0,0,1-1.292,1.939A5.683,5.683,0,0,1,211.6,41.19a6.035,6.035,0,0,1-2.353.466H190.939a6.028,6.028,0,0,1-2.353-.466,5.948,5.948,0,0,1-3.233-3.232,6.034,6.034,0,0,1-.465-2.353v-24.1a6.031,6.031,0,0,1,.465-2.353,5.7,5.7,0,0,1,1.293-1.914,6.563,6.563,0,0,1,1.939-1.292,5.756,5.756,0,0,1,2.353-.491Zm-3.1,8.791H193.991V32.864h12.154Z" transform="translate(-27.687 -0.817)" fill="#fff"/>
        <path id="Path_1349" data-name="Path 1349" d="M257.64,20.35a5.683,5.683,0,0,1,1.913,1.293,6.691,6.691,0,0,1,1.293,1.913,5.6,5.6,0,0,1,.491,2.327v9.723a5.778,5.778,0,0,1-.491,2.353,6.577,6.577,0,0,1-1.293,1.939,5.683,5.683,0,0,1-1.913,1.293,6.038,6.038,0,0,1-2.354.466H234.652a.868.868,0,0,1-.982-.983V34.416a.97.97,0,0,1,.982-.982h17.584a1,1,0,0,0,.7-.259.867.867,0,0,0,.284-.672V28.21a.97.97,0,0,0-.982-.982H239.72a6.028,6.028,0,0,1-2.353-.466,5.943,5.943,0,0,1-1.939-1.293,6.046,6.046,0,0,1-1.293-1.913,5.846,5.846,0,0,1-.465-2.327V11.506a6.031,6.031,0,0,1,.465-2.353,5.708,5.708,0,0,1,1.293-1.914,6.563,6.563,0,0,1,1.939-1.292,5.757,5.757,0,0,1,2.353-.491h19.5a.869.869,0,0,1,.984.983V12.8a.868.868,0,0,1-.285.673,1,1,0,0,1-.7.258h-16.5a.867.867,0,0,0-.673.285,1,1,0,0,0-.258.7V18.9a1,1,0,0,0,.258.7.866.866,0,0,0,.673.284h12.567a6.038,6.038,0,0,1,2.354.466" transform="translate(-34.992 -0.817)" fill="#8abb2a"/>
        <path id="Path_1350" data-name="Path 1350" d="M297.26,5.455a5.765,5.765,0,0,1,2.353.491,6.081,6.081,0,0,1,3.207,3.206,5.775,5.775,0,0,1,.491,2.353V35.6a5.778,5.778,0,0,1-.491,2.353,6.579,6.579,0,0,1-1.294,1.939,5.671,5.671,0,0,1-1.913,1.293,6.037,6.037,0,0,1-2.353.466H278.951a6.034,6.034,0,0,1-2.353-.466,5.95,5.95,0,0,1-3.232-3.232A6.035,6.035,0,0,1,272.9,35.6v-24.1a6.032,6.032,0,0,1,.466-2.353,5.683,5.683,0,0,1,1.293-1.914A6.559,6.559,0,0,1,276.6,5.946a5.762,5.762,0,0,1,2.353-.491Zm-3.1,8.791H282V32.864h12.153Z" transform="translate(-40.866 -0.817)" fill="#8abb2a"/>
        <path id="Path_1351" data-name="Path 1351" d="M324.986,14.505a.866.866,0,0,0-.284.673V31.934a.862.862,0,0,0,.284.673,1,1,0,0,0,.7.259h16.6a.971.971,0,0,1,.982.982v6.827a.973.973,0,0,1-.982.983H321.649a6.034,6.034,0,0,1-2.353-.466,5.948,5.948,0,0,1-3.233-3.232,6.065,6.065,0,0,1-.465-2.353v-24.1a6.062,6.062,0,0,1,.465-2.353,5.721,5.721,0,0,1,1.293-1.914A6.585,6.585,0,0,1,319.3,5.946a5.763,5.763,0,0,1,2.353-.491h20.636a.971.971,0,0,1,.982.983v6.827a.971.971,0,0,1-.982.982h-16.6a1,1,0,0,0-.7.258" transform="translate(-47.26 -0.817)" fill="#8abb2a"/>
        <path id="Path_1352" data-name="Path 1352" d="M364.583,14.505a.866.866,0,0,0-.285.673V31.934a.863.863,0,0,0,.285.673,1,1,0,0,0,.7.259h16.6a.97.97,0,0,1,.982.982v6.827a.971.971,0,0,1-.982.983H361.246a6.034,6.034,0,0,1-2.353-.466,5.948,5.948,0,0,1-3.233-3.232,6.049,6.049,0,0,1-.465-2.353v-24.1a6.046,6.046,0,0,1,.465-2.353,5.707,5.707,0,0,1,1.293-1.914,6.574,6.574,0,0,1,1.939-1.292,5.763,5.763,0,0,1,2.353-.491h20.636a.97.97,0,0,1,.982.983v6.827a.97.97,0,0,1-.982.982h-16.6a1,1,0,0,0-.7.258" transform="translate(-53.19 -0.817)" fill="#8abb2a"/>
        <path id="Path_1353" data-name="Path 1353" d="M403.895,14.143v5.638c0,.138.086.207.259.207h14.74a.971.971,0,0,1,.982.982v5.172a.869.869,0,0,1-.982.983h-14.74a.228.228,0,0,0-.259.258v5.586a.228.228,0,0,0,.259.258h17.326a.97.97,0,0,1,.982.983v6.464a.971.971,0,0,1-.982.982H400.843a6.03,6.03,0,0,1-2.353-.465,5.948,5.948,0,0,1-3.233-3.232,6.05,6.05,0,0,1-.465-2.353v-24.1a6.046,6.046,0,0,1,.465-2.353,5.708,5.708,0,0,1,1.293-1.914,6.582,6.582,0,0,1,1.939-1.293,5.773,5.773,0,0,1,2.353-.491h20.636a.97.97,0,0,1,.982.982v6.517a.87.87,0,0,1-.284.673,1,1,0,0,1-.7.258H404.153a.229.229,0,0,0-.259.258" transform="translate(-59.119 -0.817)" fill="#8abb2a"/>
        <path id="Path_1354" data-name="Path 1354" d="M465.511,40.828a.55.55,0,0,1,.052.6.634.634,0,0,1-.569.233h-8.223a1.673,1.673,0,0,1-.828-.233,1.575,1.575,0,0,1-.62-.6L449.841,31a.372.372,0,0,0-.362-.207h-6.154a.229.229,0,0,0-.258.259v9.619a.869.869,0,0,1-.982.983h-7.138a.868.868,0,0,1-.982-.983V6.437a.868.868,0,0,1,.982-.982h23.376a5.76,5.76,0,0,1,2.354.491,6.068,6.068,0,0,1,3.206,3.206,5.761,5.761,0,0,1,.491,2.353v13.6a5.983,5.983,0,0,1-4.136,5.688l-.155.052q-.364.1-.156.31l.051.1ZM455.219,13.884H442.756v8.792h12.464Z" transform="translate(-64.985 -0.817)" fill="#8abb2a"/>
        <rect id="Rectangle_290" data-name="Rectangle 290" width="2.035" height="2.001" transform="translate(415.965 41.038)" fill="#fff"/>
        <path id="Path_1355" data-name="Path 1355" d="M489.481,42.767c0,1.261-.286,1.849-1.783,1.849h-8.575c-1.5,0-1.782-.588-1.782-1.849V38.092c0-1.261.287-1.849,1.782-1.849h1.833v2.018H479.78c-.487,0-.505.1-.505.521v3.295c0,.422.018.522.505.522h7.264c.487,0,.5-.1.5-.522V38.782c0-.471-.017-.521-.488-.521h-1.194V36.243H487.7c1.5,0,1.783.588,1.783,1.849Z" transform="translate(-71.481 -5.428)" fill="#fff"/>
        <path id="Path_1356" data-name="Path 1356" d="M489.481,30.674c0,1.261-.286,1.848-1.783,1.848h-8.574c-1.5,0-1.783-.588-1.783-1.848V25.5c0-1.262.287-1.85,1.783-1.85H487.7c1.5,0,1.783.588,1.783,1.85Zm-9.7-5.011c-.487,0-.505.1-.505.521v3.8c0,.421.018.521.505.521h7.264c.487,0,.5-.1.5-.521v-3.8c0-.47-.017-.521-.487-.521Z" transform="translate(-71.481 -3.541)" fill="#fff"/>
        <path id="Path_1357" data-name="Path 1357" d="M489.481,9.922h-9.55l9.55,2.269v2.523l-9.584,2.4h9.584v2.018h-12.14V15.857l9.3-2.4-9.3-2.269V7.9h12.14Z" transform="translate(-71.481 -1.184)" fill="#fff"/>
        <path id="Path_1358" data-name="Path 1358" d="M8.342,32.854h9.752l16.194-7.761c.179-.433.344-.876.487-1.334a15.963,15.963,0,0,0-.207-10.077A14.444,14.444,0,0,0,32.032,9.2a11.245,11.245,0,0,0-3.8-2.922,12.88,12.88,0,0,0-5.554-1.065H2.028Q0,5.215,0,7.509V41.526l8.343-4Zm0-17.1q0-.764.6-.764h13.92a4.8,4.8,0,0,1,2.188.436,3.555,3.555,0,0,1,1.361,1.2,4.992,4.992,0,0,1,.782,2.785,4.742,4.742,0,0,1-.736,2.622,3.608,3.608,0,0,1-1.36,1.284,4.664,4.664,0,0,1-2.234.464H8.342Z" transform="translate(0 -0.781)" fill="#8abb2a"/>
        <path id="Path_1359" data-name="Path 1359" d="M58.25,15.7a1.919,1.919,0,0,1,.714-.519,3.135,3.135,0,0,1,1.222-.191h2.5l19.9-9.539V5.215H59.726a11.791,11.791,0,0,0-5.024.9,8.951,8.951,0,0,0-3.134,2.431,11.98,11.98,0,0,0-1.959,3.5,12.222,12.222,0,0,0-.713,4.205,12.522,12.522,0,0,0,.69,4.233c.081.226.174.443.267.661l7.76-3.719A2.8,2.8,0,0,1,58.25,15.7" transform="translate(-7.322 -0.781)" fill="#8abb2a"/>
        <path id="Path_1360" data-name="Path 1360" d="M8.342,47.831V43.218L0,47.217v.614Z" transform="translate(0 -6.472)" fill="#fff"/>
        <path id="Path_1361" data-name="Path 1361" d="M25.863,36.355A12.425,12.425,0,0,0,31.9,35.017a11.879,11.879,0,0,0,4.057-3.632,14.833,14.833,0,0,0,1.517-2.791L21.28,36.355Z" transform="translate(-3.187 -4.282)" fill="#fff"/>
        <path id="Path_1362" data-name="Path 1362" d="M85.015,15.035V5.5l-19.9,9.538Z" transform="translate(-9.75 -0.823)" fill="#fff"/>
        <path id="Path_1363" data-name="Path 1363" d="M54.825,28.531a11.936,11.936,0,0,0,5.047.9H72.547a4,4,0,0,1,1.405.191,1.817,1.817,0,0,1,.807.628,2.946,2.946,0,0,1,.645,1.967,2.839,2.839,0,0,1-.507,1.693,2.183,2.183,0,0,1-.853.683,3.653,3.653,0,0,1-1.5.246H49.871v9.45H74.022A9.179,9.179,0,0,0,81.9,40.466a12.429,12.429,0,0,0,1.683-3.332,12.409,12.409,0,0,0-.092-8.03,11.969,11.969,0,0,0-1.96-3.5,9.1,9.1,0,0,0-3.065-2.431,9.957,9.957,0,0,0-4.447-.9H60.333a3.6,3.6,0,0,1-1.129-.136,1.741,1.741,0,0,1-.668-.41,2.625,2.625,0,0,1-.784-1.967c0-.065,0-.128.007-.191L50,23.293a11.5,11.5,0,0,0,1.67,2.808,8.873,8.873,0,0,0,3.157,2.431" transform="translate(-7.468 -2.931)" fill="#fff"/>
        <path id="Path_1364" data-name="Path 1364" d="M46.835,5.477a1.834,1.834,0,0,0-.148.65c.019.253-.156.288-.224.5a3.019,3.019,0,0,1-.259.836,5.54,5.54,0,0,0-.363.922s.353.223.337.47a5.374,5.374,0,0,1,2.672.577,9.6,9.6,0,0,0,2.433,1.2c.93.386,1.32,1.1,2.423,1.729s.969,1.251,1.336,1.188,0,.2-.278.5a2.034,2.034,0,0,0-.388.619,11.657,11.657,0,0,1,3.6,1.941,12.4,12.4,0,0,0,4.755,2.71c2.075.67,1.814.751,2.078.982s1.692.894,1.482,1.112a.8.8,0,0,1-.628.144s.393.514.164.582-.827-.679-1.322-.9.054.194-.184.54-.448-.2-1.1-.378a4.165,4.165,0,0,1-1.915-1.22,13.935,13.935,0,0,0-4.656-2.044,6.679,6.679,0,0,1-3.488-2,.9.9,0,0,1-.893-.088,10.343,10.343,0,0,0-2.405-1.579,6.764,6.764,0,0,1-1.289-.4,4.862,4.862,0,0,0-.588,1.32,6.885,6.885,0,0,1-.323,1.805c-.3.6.062,1.384-.06,2.545a27.853,27.853,0,0,0,.54,4.818c.19,1.412-.088,1.4-.224,2.979S47.539,32.5,47,33.644a9.973,9.973,0,0,1,.436,2.257c-.024.752.945,1.241,1.516,2.624s1.315,4.852,2.107,5.741,1.721,1.275,1.862,1.592a2.521,2.521,0,0,1,.009,2.011c-.386.93-.761.82-1.295.5s-.778-.6-1.079-1.638A17.985,17.985,0,0,0,47.821,42.4a21.306,21.306,0,0,1-2.9-5.416,2.811,2.811,0,0,1-1.9-1.752c-.361-1.348-1.377-1.856-1.831-2.425s-2.634-3.348-3.339-4.369a7.94,7.94,0,0,0-3.353-2.369c-.938-.3-1.229-.857-.864-1.232a7.911,7.911,0,0,1,2.818-.808,1.444,1.444,0,0,1,1.687,1.033l.4.745a5.76,5.76,0,0,1,.287-1.342c.2-.448-.366-1.208-.094-1.821s.286-.071.577-1.043a6.068,6.068,0,0,0,.036-2.809c-.141-1.334-.636-1.554-.974-3.145s.368-1.588-1.461-1.668-3-.119-3.239-.594-.358-.781-.358-.781-1.714-.339-2.43-.573a9.411,9.411,0,0,1-2.478-1.414c-1.347-.911-3.233-2.512-4.063-2.741a3.124,3.124,0,0,1-1.779-1.018c-.286-.438-.53-.716-.715-.742a2.59,2.59,0,0,1-1.323-.391c-.643-.4-.365-.388-.378-.677s-.089-.434.3-.544.53-.556,1.035-.359,1.78.255,2.468,1.184a5.844,5.844,0,0,0,2.544,1.838c1.372.724,5.078,1.922,5.863,2.7,0,0,.684.05,1.145.03a7.975,7.975,0,0,0,2.411-.085,12.687,12.687,0,0,1,3.735-1.219c1.031.035,1.436.074,1.644.054a3.979,3.979,0,0,1,.4-.019,1.947,1.947,0,0,0,.219-1.541,3.522,3.522,0,0,1-.423-1.46,6.3,6.3,0,0,1,.415-2.584,2.472,2.472,0,0,1,2.5-1.371c1.306.27,1.77.308,2.428,1.462a1.94,1.94,0,0,1,0,2.348" transform="translate(-3.01 -0.243)" fill="#fff"/>
        <path id="Path_1365" data-name="Path 1365" d="M46.835,5.477a1.834,1.834,0,0,0-.148.65c.019.253-.156.288-.224.5a3.019,3.019,0,0,1-.259.836,5.54,5.54,0,0,0-.363.922s.353.223.337.47a5.374,5.374,0,0,1,2.672.577,9.6,9.6,0,0,0,2.433,1.2c.93.386,1.32,1.1,2.423,1.729s.969,1.251,1.336,1.188,0,.2-.278.5a2.034,2.034,0,0,0-.388.619,11.657,11.657,0,0,1,3.6,1.941,12.4,12.4,0,0,0,4.755,2.71c2.075.67,1.814.751,2.078.982s1.692.894,1.482,1.112a.8.8,0,0,1-.628.144s.393.514.164.582-.827-.679-1.322-.9.054.194-.184.54-.448-.2-1.1-.378a4.165,4.165,0,0,1-1.915-1.22,13.935,13.935,0,0,0-4.656-2.044,6.679,6.679,0,0,1-3.488-2,.9.9,0,0,1-.893-.088,10.343,10.343,0,0,0-2.405-1.579,6.764,6.764,0,0,1-1.289-.4,4.862,4.862,0,0,0-.588,1.32,6.885,6.885,0,0,1-.323,1.805c-.3.6.062,1.384-.06,2.545a27.853,27.853,0,0,0,.54,4.818c.19,1.412-.088,1.4-.224,2.979S47.539,32.5,47,33.644a9.973,9.973,0,0,1,.436,2.257c-.024.752.945,1.241,1.516,2.624s1.315,4.852,2.107,5.741,1.721,1.275,1.862,1.592a2.521,2.521,0,0,1,.009,2.011c-.386.93-.761.82-1.295.5s-.778-.6-1.079-1.638A17.985,17.985,0,0,0,47.821,42.4a21.306,21.306,0,0,1-2.9-5.416,2.811,2.811,0,0,1-1.9-1.752c-.361-1.348-1.377-1.856-1.831-2.425s-2.634-3.348-3.339-4.369a7.94,7.94,0,0,0-3.353-2.369c-.938-.3-1.229-.857-.864-1.232a7.911,7.911,0,0,1,2.818-.808,1.444,1.444,0,0,1,1.687,1.033l.4.745a5.76,5.76,0,0,1,.287-1.342c.2-.448-.366-1.208-.094-1.821s.286-.071.577-1.043a6.068,6.068,0,0,0,.036-2.809c-.141-1.334-.636-1.554-.974-3.145s.368-1.588-1.461-1.668-3-.119-3.239-.594-.358-.781-.358-.781-1.714-.339-2.43-.573a9.411,9.411,0,0,1-2.478-1.414c-1.347-.911-3.233-2.512-4.063-2.741a3.124,3.124,0,0,1-1.779-1.018c-.286-.438-.53-.716-.715-.742a2.59,2.59,0,0,1-1.323-.391c-.643-.4-.365-.388-.378-.677s-.089-.434.3-.544.53-.556,1.035-.359,1.78.255,2.468,1.184a5.844,5.844,0,0,0,2.544,1.838c1.372.724,5.078,1.922,5.863,2.7,0,0,.684.05,1.145.03a7.975,7.975,0,0,0,2.411-.085,12.687,12.687,0,0,1,3.735-1.219c1.031.035,1.436.074,1.644.054a3.979,3.979,0,0,1,.4-.019,1.947,1.947,0,0,0,.219-1.541,3.522,3.522,0,0,1-.423-1.46,6.3,6.3,0,0,1,.415-2.584,2.472,2.472,0,0,1,2.5-1.371c1.306.27,1.77.308,2.428,1.462A1.94,1.94,0,0,1,46.835,5.477Z" transform="translate(-3.01 -0.243)" fill="none" stroke="#fff" stroke-miterlimit="10" stroke-width="3.245"/>
        <path id="Path_1366" data-name="Path 1366" d="M46.835,5.477a1.834,1.834,0,0,0-.148.65c.019.253-.156.288-.224.5a3.019,3.019,0,0,1-.259.836,5.54,5.54,0,0,0-.363.922s.353.223.337.47a5.374,5.374,0,0,1,2.672.577,9.6,9.6,0,0,0,2.433,1.2c.93.386,1.32,1.1,2.423,1.729s.969,1.251,1.336,1.188,0,.2-.278.5a2.034,2.034,0,0,0-.388.619,11.657,11.657,0,0,1,3.6,1.941,12.4,12.4,0,0,0,4.755,2.71c2.075.67,1.814.751,2.078.982s1.692.894,1.482,1.112a.8.8,0,0,1-.628.144s.393.514.164.582-.827-.679-1.322-.9.054.194-.184.54-.448-.2-1.1-.378a4.165,4.165,0,0,1-1.915-1.22,13.935,13.935,0,0,0-4.656-2.044,6.679,6.679,0,0,1-3.488-2,.9.9,0,0,1-.893-.088,10.343,10.343,0,0,0-2.405-1.579,6.764,6.764,0,0,1-1.289-.4,4.862,4.862,0,0,0-.588,1.32,6.885,6.885,0,0,1-.323,1.805c-.3.6.062,1.384-.06,2.545a27.853,27.853,0,0,0,.54,4.818c.19,1.412-.088,1.4-.224,2.979S47.539,32.5,47,33.644a9.973,9.973,0,0,1,.436,2.257c-.024.752.945,1.241,1.516,2.624s1.315,4.852,2.107,5.741,1.721,1.275,1.862,1.592a2.521,2.521,0,0,1,.009,2.011c-.386.93-.761.82-1.295.5s-.778-.6-1.079-1.638A17.985,17.985,0,0,0,47.821,42.4a21.306,21.306,0,0,1-2.9-5.416,2.811,2.811,0,0,1-1.9-1.752c-.361-1.348-1.377-1.856-1.831-2.425s-2.634-3.348-3.339-4.369a7.94,7.94,0,0,0-3.353-2.369c-.938-.3-1.229-.857-.864-1.232a7.911,7.911,0,0,1,2.818-.808,1.444,1.444,0,0,1,1.687,1.033l.4.745a5.76,5.76,0,0,1,.287-1.342c.2-.448-.366-1.208-.094-1.821s.286-.071.577-1.043a6.068,6.068,0,0,0,.036-2.809c-.141-1.334-.636-1.554-.974-3.145s.368-1.588-1.461-1.668-3-.119-3.239-.594-.358-.781-.358-.781-1.714-.339-2.43-.573a9.411,9.411,0,0,1-2.478-1.414c-1.347-.911-3.233-2.512-4.063-2.741a3.124,3.124,0,0,1-1.779-1.018c-.286-.438-.53-.716-.715-.742a2.59,2.59,0,0,1-1.323-.391c-.643-.4-.365-.388-.378-.677s-.089-.434.3-.544.53-.556,1.035-.359,1.78.255,2.468,1.184a5.844,5.844,0,0,0,2.544,1.838c1.372.724,5.078,1.922,5.863,2.7,0,0,.684.05,1.145.03a7.975,7.975,0,0,0,2.411-.085,12.687,12.687,0,0,1,3.735-1.219c1.031.035,1.436.074,1.644.054a3.979,3.979,0,0,1,.4-.019,1.947,1.947,0,0,0,.219-1.541,3.522,3.522,0,0,1-.423-1.46,6.3,6.3,0,0,1,.415-2.584,2.472,2.472,0,0,1,2.5-1.371c1.306.27,1.77.308,2.428,1.462a1.94,1.94,0,0,1,0,2.348" transform="translate(-3.01 -0.243)" fill="#464646"/>
      </g>
    </g>
  </g>
</svg>
